<svg xmlns="http://www.w3.org/2000/svg" xmlns:xlink="http://www.w3.org/1999/xlink" width="366" zoomAndPan="magnify" viewBox="0 0 274.5 162.75" height="217" preserveAspectRatio="xMidYMid meet" version="1.0"><defs><g/><clipPath id="449b4d8452"><path d="M 123 52 L 150 52 L 150 92.855469 L 123 92.855469 Z M 123 52 " clip-rule="nonzero"/></clipPath><clipPath id="f81f2a2187"><path d="M 101.675781 18 L 172 18 L 172 55 L 101.675781 55 Z M 101.675781 18 " clip-rule="nonzero"/></clipPath><clipPath id="2536683e94"><path d="M 101.675781 9 L 172 9 L 172 53 L 101.675781 53 Z M 101.675781 9 " clip-rule="nonzero"/></clipPath><clipPath id="bfbe7002e5"><path d="M 104 0.0234375 L 113 0.0234375 L 113 19 L 104 19 Z M 104 0.0234375 " clip-rule="nonzero"/></clipPath><clipPath id="b50d4c1832"><rect x="0" width="82" y="0" height="12"/></clipPath></defs><g clip-path="url(#449b4d8452)"><path fill="#f0ece4" d="M 142.101562 55.449219 C 136.738281 57.503906 131.796875 56.257812 126.742188 53.800781 C 125.46875 53.179688 124.03125 52.398438 123.992188 52.472656 C 123.972656 52.507812 124.328125 52.75 124.621094 52.941406 C 130.332031 56.695312 135.152344 59.800781 136.234375 67.144531 C 137.304688 74.394531 136.035156 82.421875 134.734375 89.539062 C 130.976562 89.75 128.226562 90.410156 128.226562 91.195312 C 128.226562 92.148438 132.261719 92.921875 137.242188 92.921875 C 142.222656 92.921875 146.257812 92.148438 146.257812 91.195312 C 146.257812 90.398438 143.433594 89.730469 139.597656 89.53125 C 139.28125 87.574219 137.519531 76.496094 137.710938 68.148438 C 137.757812 66.023438 137.945312 63.457031 139.476562 60.90625 C 140.417969 59.339844 141.441406 58.242188 143.023438 57.003906 C 146.628906 54.175781 149.46875 52.449219 149.390625 52.3125 C 149.316406 52.179688 146.441406 53.785156 142.101562 55.449219 "  fill-rule="nonzero"/></g><g clip-path="url(#f81f2a2187)"><path fill="#f0ece4" d="M 171.695312 18.230469 C 171.65625 19.707031 171.527344 21.160156 171.3125 22.585938 C 171.289062 22.726562 171.265625 22.871094 171.242188 23.011719 C 171.199219 23.273438 171.152344 23.535156 171.105469 23.796875 C 171.097656 23.839844 171.089844 23.886719 171.078125 23.929688 C 170.839844 25.175781 170.535156 26.394531 170.171875 27.589844 C 170.046875 27.992188 169.914062 28.394531 169.773438 28.792969 C 169.648438 29.15625 169.519531 29.515625 169.378906 29.871094 C 169.351562 29.945312 169.324219 30.015625 169.296875 30.089844 C 169.171875 30.40625 169.042969 30.71875 168.910156 31.03125 C 168.621094 31.710938 168.308594 32.382812 167.976562 33.039062 C 167.808594 33.367188 167.636719 33.695312 167.460938 34.015625 C 167.371094 34.183594 167.28125 34.347656 167.191406 34.507812 C 167.121094 34.628906 167.050781 34.75 166.980469 34.871094 C 166.871094 35.0625 166.757812 35.253906 166.640625 35.445312 C 166.496094 35.679688 166.351562 35.917969 166.199219 36.148438 C 166.121094 36.273438 166.042969 36.394531 165.964844 36.515625 C 165.914062 36.589844 165.863281 36.667969 165.808594 36.746094 C 165.703125 36.902344 165.597656 37.058594 165.492188 37.214844 C 165.386719 37.363281 165.285156 37.511719 165.179688 37.65625 C 165.054688 37.832031 164.925781 38.007812 164.792969 38.183594 C 164.613281 38.425781 164.429688 38.667969 164.238281 38.910156 C 164.203125 38.953125 164.167969 39 164.132812 39.046875 C 163.722656 39.5625 163.292969 40.070312 162.855469 40.5625 C 162.488281 40.976562 162.113281 41.378906 161.726562 41.773438 C 161.628906 41.871094 161.535156 41.96875 161.4375 42.066406 C 161.046875 42.457031 160.648438 42.835938 160.238281 43.207031 C 160.035156 43.390625 159.828125 43.574219 159.621094 43.753906 C 159.308594 44.027344 158.992188 44.292969 158.671875 44.550781 C 158.5625 44.636719 158.453125 44.722656 158.347656 44.808594 C 158.175781 44.945312 158.003906 45.074219 157.832031 45.207031 C 157.703125 45.304688 157.574219 45.402344 157.445312 45.496094 C 157.382812 45.539062 157.324219 45.585938 157.265625 45.628906 C 156.847656 45.929688 156.425781 46.222656 155.996094 46.507812 C 155.535156 46.8125 155.066406 47.109375 154.589844 47.390625 C 154.472656 47.464844 154.351562 47.535156 154.234375 47.601562 C 153.949219 47.765625 153.667969 47.925781 153.378906 48.082031 C 153.21875 48.167969 153.058594 48.253906 152.898438 48.335938 C 152.816406 48.378906 152.730469 48.425781 152.644531 48.46875 C 152.480469 48.550781 152.316406 48.636719 152.148438 48.71875 C 151.484375 49.046875 150.808594 49.355469 150.117188 49.640625 C 149.808594 49.769531 149.5 49.890625 149.1875 50.011719 C 148.976562 50.089844 148.761719 50.171875 148.550781 50.246094 C 148.152344 50.390625 147.753906 50.527344 147.347656 50.65625 C 147.082031 50.742188 146.808594 50.824219 146.539062 50.902344 C 146.132812 51.023438 145.722656 51.132812 145.308594 51.238281 C 145.03125 51.308594 144.753906 51.375 144.476562 51.4375 C 144.199219 51.5 143.917969 51.5625 143.640625 51.617188 C 143.359375 51.675781 143.074219 51.726562 142.792969 51.777344 C 142.367188 51.851562 141.941406 51.917969 141.511719 51.976562 C 141.226562 52.015625 140.9375 52.050781 140.648438 52.085938 C 139.351562 52.230469 138.03125 52.304688 136.691406 52.304688 C 135.355469 52.304688 134.035156 52.230469 132.734375 52.085938 C 132.449219 52.050781 132.160156 52.015625 131.875 51.976562 C 131.445312 51.917969 131.015625 51.851562 130.59375 51.777344 C 130.308594 51.726562 130.027344 51.675781 129.746094 51.617188 C 129.464844 51.5625 129.1875 51.5 128.910156 51.4375 C 128.628906 51.375 128.355469 51.308594 128.078125 51.238281 C 127.664062 51.132812 127.253906 51.023438 126.847656 50.902344 C 126.574219 50.824219 126.304688 50.742188 126.035156 50.65625 C 125.632812 50.527344 125.234375 50.390625 124.835938 50.246094 C 124.621094 50.171875 124.410156 50.089844 124.195312 50.011719 C 123.886719 49.890625 123.574219 49.769531 123.265625 49.640625 C 122.578125 49.355469 121.902344 49.046875 121.234375 48.71875 C 121.070312 48.636719 120.902344 48.550781 120.738281 48.46875 C 120.65625 48.425781 120.570312 48.378906 120.484375 48.335938 C 120.324219 48.253906 120.164062 48.167969 120.007812 48.082031 C 119.71875 47.925781 119.433594 47.765625 119.152344 47.601562 C 119.03125 47.535156 118.914062 47.464844 118.792969 47.390625 C 118.316406 47.109375 117.847656 46.8125 117.386719 46.507812 C 116.957031 46.222656 116.535156 45.929688 116.121094 45.628906 C 116.0625 45.585938 116 45.539062 115.941406 45.496094 C 115.8125 45.402344 115.679688 45.304688 115.550781 45.207031 C 115.378906 45.074219 115.207031 44.945312 115.039062 44.808594 C 114.929688 44.722656 114.824219 44.636719 114.714844 44.550781 C 114.394531 44.292969 114.074219 44.027344 113.765625 43.753906 C 113.554688 43.574219 113.347656 43.390625 113.144531 43.207031 C 112.839844 42.929688 112.539062 42.644531 112.242188 42.355469 C 112.046875 42.164062 111.851562 41.96875 111.660156 41.773438 C 111.273438 41.378906 110.898438 40.976562 110.53125 40.5625 C 110.089844 40.070312 109.664062 39.5625 109.253906 39.046875 C 109.21875 39 109.179688 38.953125 109.144531 38.910156 C 108.957031 38.667969 108.773438 38.425781 108.589844 38.183594 C 108.460938 38.007812 108.332031 37.832031 108.207031 37.65625 C 108.101562 37.511719 107.996094 37.363281 107.894531 37.214844 C 107.785156 37.058594 107.679688 36.902344 107.574219 36.746094 C 107.523438 36.667969 107.472656 36.589844 107.421875 36.515625 C 107.339844 36.394531 107.261719 36.273438 107.183594 36.148438 C 107.035156 35.917969 106.886719 35.679688 106.746094 35.445312 C 106.628906 35.253906 106.515625 35.0625 106.402344 34.871094 C 106.332031 34.75 106.265625 34.628906 106.195312 34.507812 C 106.105469 34.347656 106.011719 34.183594 105.921875 34.015625 C 105.746094 33.695312 105.574219 33.367188 105.410156 33.039062 C 105.203125 32.628906 105.003906 32.210938 104.8125 31.792969 C 104.730469 31.617188 104.652344 31.4375 104.574219 31.261719 C 104.542969 31.183594 104.507812 31.109375 104.476562 31.03125 C 104.34375 30.71875 104.214844 30.40625 104.089844 30.089844 C 104.0625 30.015625 104.03125 29.945312 104.003906 29.871094 C 103.867188 29.515625 103.734375 29.15625 103.609375 28.792969 C 103.472656 28.394531 103.339844 27.992188 103.214844 27.589844 C 102.847656 26.394531 102.542969 25.175781 102.304688 23.929688 C 102.296875 23.886719 102.289062 23.839844 102.28125 23.796875 C 102.230469 23.535156 102.183594 23.273438 102.140625 23.011719 C 102.117188 22.871094 102.09375 22.726562 102.074219 22.585938 C 101.859375 21.160156 101.726562 19.707031 101.6875 18.230469 C 101.679688 18.535156 101.675781 18.847656 101.675781 19.15625 C 101.675781 38.496094 117.351562 54.171875 136.691406 54.171875 C 156.03125 54.171875 171.710938 38.496094 171.710938 19.15625 C 171.710938 18.847656 171.707031 18.535156 171.695312 18.230469 "  fill-rule="nonzero"/></g><g clip-path="url(#2536683e94)"><path fill="#f0ece4" d="M 102.28125 23.796875 C 102.289062 23.839844 102.296875 23.886719 102.304688 23.929688 C 102.542969 25.175781 102.847656 26.394531 103.214844 27.589844 C 103.339844 27.992188 103.472656 28.394531 103.609375 28.792969 C 103.734375 29.15625 103.867188 29.515625 104.003906 29.871094 C 104.03125 29.945312 104.0625 30.015625 104.089844 30.089844 C 104.214844 30.40625 104.34375 30.71875 104.476562 31.03125 C 104.507812 31.109375 104.542969 31.183594 104.574219 31.261719 C 104.652344 31.4375 104.730469 31.617188 104.8125 31.792969 C 105.003906 32.210938 105.203125 32.628906 105.410156 33.039062 C 105.574219 33.367188 105.746094 33.695312 105.921875 34.015625 C 106.011719 34.183594 106.105469 34.347656 106.195312 34.507812 C 106.265625 34.628906 106.332031 34.75 106.402344 34.871094 C 106.515625 35.0625 106.628906 35.253906 106.746094 35.445312 C 106.886719 35.679688 107.035156 35.917969 107.183594 36.148438 C 107.261719 36.273438 107.339844 36.394531 107.421875 36.515625 C 107.472656 36.589844 107.523438 36.667969 107.574219 36.746094 C 107.679688 36.902344 107.785156 37.058594 107.894531 37.214844 C 107.996094 37.363281 108.101562 37.511719 108.207031 37.65625 C 108.332031 37.832031 108.460938 38.007812 108.589844 38.183594 C 108.773438 38.425781 108.957031 38.667969 109.144531 38.910156 C 109.179688 38.953125 109.21875 39 109.253906 39.046875 C 109.664062 39.5625 110.089844 40.070312 110.53125 40.5625 C 110.898438 40.976562 111.273438 41.378906 111.660156 41.773438 C 111.851562 41.96875 112.046875 42.164062 112.242188 42.355469 C 112.539062 42.644531 112.839844 42.929688 113.144531 43.207031 C 113.347656 43.390625 113.554688 43.574219 113.765625 43.753906 C 114.074219 44.027344 114.394531 44.292969 114.714844 44.550781 C 114.824219 44.636719 114.929688 44.722656 115.039062 44.808594 C 115.207031 44.945312 115.378906 45.074219 115.550781 45.207031 C 115.679688 45.304688 115.8125 45.402344 115.941406 45.496094 C 116 45.539062 116.0625 45.585938 116.121094 45.628906 C 116.535156 45.929688 116.957031 46.222656 117.386719 46.507812 C 117.847656 46.8125 118.316406 47.109375 118.792969 47.390625 C 118.914062 47.464844 119.03125 47.535156 119.152344 47.601562 C 119.433594 47.765625 119.71875 47.925781 120.007812 48.082031 C 120.164062 48.167969 120.324219 48.253906 120.484375 48.335938 C 120.570312 48.378906 120.65625 48.425781 120.738281 48.46875 C 120.902344 48.550781 121.070312 48.636719 121.234375 48.71875 C 121.902344 49.046875 122.578125 49.355469 123.265625 49.640625 C 123.574219 49.769531 123.886719 49.890625 124.195312 50.011719 C 124.410156 50.089844 124.621094 50.171875 124.835938 50.246094 C 125.234375 50.390625 125.632812 50.527344 126.035156 50.65625 C 126.304688 50.742188 126.574219 50.824219 126.847656 50.902344 C 127.253906 51.023438 127.664062 51.132812 128.078125 51.238281 C 128.355469 51.308594 128.628906 51.375 128.910156 51.4375 C 129.1875 51.5 129.464844 51.5625 129.746094 51.617188 C 130.027344 51.675781 130.308594 51.726562 130.59375 51.777344 C 131.015625 51.851562 131.445312 51.917969 131.875 51.976562 C 132.160156 52.015625 132.449219 52.050781 132.734375 52.085938 C 134.035156 52.230469 135.355469 52.304688 136.691406 52.304688 C 138.03125 52.304688 139.351562 52.230469 140.648438 52.085938 C 140.9375 52.050781 141.226562 52.015625 141.511719 51.976562 C 141.941406 51.917969 142.367188 51.851562 142.792969 51.777344 C 143.074219 51.726562 143.359375 51.675781 143.640625 51.617188 C 143.917969 51.5625 144.199219 51.5 144.476562 51.4375 C 144.753906 51.375 145.03125 51.308594 145.308594 51.238281 C 145.722656 51.132812 146.132812 51.023438 146.539062 50.902344 C 146.808594 50.824219 147.082031 50.742188 147.347656 50.65625 C 147.753906 50.527344 148.152344 50.390625 148.550781 50.246094 C 148.761719 50.171875 148.976562 50.089844 149.1875 50.011719 C 149.5 49.890625 149.808594 49.769531 150.117188 49.640625 C 150.808594 49.355469 151.484375 49.046875 152.148438 48.71875 C 152.316406 48.636719 152.480469 48.550781 152.644531 48.46875 C 152.730469 48.425781 152.816406 48.378906 152.898438 48.335938 C 153.058594 48.253906 153.21875 48.167969 153.378906 48.082031 C 153.667969 47.925781 153.949219 47.765625 154.234375 47.601562 C 154.351562 47.535156 154.472656 47.464844 154.589844 47.390625 C 155.066406 47.109375 155.535156 46.8125 155.996094 46.507812 C 156.425781 46.222656 156.847656 45.929688 157.265625 45.628906 C 157.324219 45.585938 157.382812 45.539062 157.445312 45.496094 C 157.574219 45.402344 157.703125 45.304688 157.832031 45.207031 C 158.003906 45.074219 158.175781 44.945312 158.347656 44.808594 C 158.453125 44.722656 158.5625 44.636719 158.671875 44.550781 C 158.992188 44.292969 159.308594 44.027344 159.621094 43.753906 C 159.828125 43.574219 160.035156 43.390625 160.238281 43.207031 C 160.648438 42.835938 161.046875 42.457031 161.4375 42.066406 C 161.535156 41.96875 161.628906 41.871094 161.726562 41.773438 C 162.113281 41.378906 162.488281 40.976562 162.855469 40.5625 C 163.292969 40.070312 163.722656 39.5625 164.132812 39.046875 C 164.167969 39 164.203125 38.953125 164.238281 38.910156 C 164.429688 38.667969 164.613281 38.425781 164.792969 38.183594 C 164.925781 38.007812 165.054688 37.832031 165.179688 37.65625 C 165.285156 37.511719 165.386719 37.363281 165.492188 37.214844 C 165.597656 37.058594 165.703125 36.902344 165.808594 36.746094 C 165.863281 36.667969 165.914062 36.589844 165.964844 36.515625 C 166.042969 36.394531 166.121094 36.273438 166.199219 36.148438 C 166.351562 35.917969 166.496094 35.679688 166.640625 35.445312 C 166.757812 35.253906 166.871094 35.0625 166.980469 34.871094 C 167.050781 34.75 167.121094 34.628906 167.191406 34.507812 C 167.28125 34.347656 167.371094 34.183594 167.460938 34.015625 C 167.636719 33.695312 167.808594 33.367188 167.976562 33.039062 C 168.308594 32.382812 168.621094 31.710938 168.910156 31.03125 C 169.042969 30.71875 169.171875 30.40625 169.296875 30.089844 C 169.324219 30.015625 169.351562 29.945312 169.378906 29.871094 C 169.519531 29.515625 169.648438 29.15625 169.773438 28.792969 C 169.914062 28.394531 170.046875 27.992188 170.171875 27.589844 C 170.535156 26.394531 170.839844 25.175781 171.078125 23.929688 C 171.089844 23.886719 171.097656 23.839844 171.105469 23.796875 C 171.152344 23.535156 171.199219 23.273438 171.242188 23.011719 C 171.265625 22.871094 171.289062 22.726562 171.3125 22.585938 C 171.527344 21.160156 171.65625 19.707031 171.695312 18.230469 C 171.707031 17.917969 171.710938 17.601562 171.710938 17.289062 C 171.710938 14.472656 171.375 11.738281 170.75 9.117188 C 167.066406 24.511719 153.21875 35.960938 136.691406 35.960938 C 127.789062 35.960938 119.664062 32.636719 113.488281 27.164062 C 115.789062 29.925781 118.292969 31.902344 120.515625 33.304688 C 122.734375 34.699219 124.65625 35.539062 125.453125 35.839844 C 123.71875 35.328125 116.617188 33.160156 111.472656 27.132812 C 106.878906 21.757812 104.5625 14.660156 104.5625 14.660156 C 103.59375 11.699219 102.757812 8.605469 102.636719 9.117188 C 102.011719 11.738281 101.675781 14.472656 101.675781 17.289062 C 101.675781 17.601562 101.679688 17.917969 101.6875 18.230469 C 101.726562 19.707031 101.859375 21.160156 102.074219 22.585938 C 102.09375 22.726562 102.117188 22.871094 102.140625 23.011719 C 102.183594 23.273438 102.230469 23.535156 102.28125 23.796875 "  fill-rule="nonzero"/></g><g clip-path="url(#bfbe7002e5)"><path fill="#f0ece4" d="M 109.746094 18.886719 C 109.945312 18.777344 107.945312 16.261719 107.800781 12.234375 C 107.734375 10.375 108.144531 8.507812 108.71875 6.75 C 108.804688 6.484375 108.902344 6.207031 109.109375 6.019531 C 109.664062 5.511719 110.300781 5.808594 110.886719 5.53125 C 111.847656 5.078125 112.410156 3.117188 111.667969 1.703125 C 111.1875 0.777344 110.125 0.0429688 109.085938 0.0703125 C 106.851562 0.132812 104.917969 3.707031 104.445312 6.558594 C 103.359375 13.105469 109.425781 19.070312 109.746094 18.886719 "  fill-rule="nonzero"/></g><path fill="#f0ece4" d="M 111.171875 11.894531 C 109.746094 13.519531 110.773438 18.230469 111.566406 19.457031 C 112.335938 20.644531 113.332031 21.375 113.433594 21.292969 C 113.554688 21.195312 112.355469 20.160156 112.199219 18.550781 C 112.027344 16.792969 113.238281 14.84375 113.917969 13.296875 C 114.023438 13.0625 114.128906 12.816406 114.128906 12.558594 C 114.132812 11.996094 113.625 11.539062 113.078125 11.414062 C 112.195312 11.210938 111.582031 11.421875 111.171875 11.894531 "  fill-rule="nonzero"/><g fill="#f0ece4" ><g transform="translate(66.995533, 125.861017)"><g><path d="M 49.859375 2.203125 C 52.472656 2.203125 55.019531 2.742188 57.5 3.828125 C 59.976562 4.921875 62.132812 6.363281 63.96875 8.15625 L 63.78125 8.390625 C 61.875 6.722656 59.789062 5.609375 57.53125 5.046875 C 55.269531 4.492188 52.910156 4.21875 50.453125 4.21875 C 48.785156 4.21875 47.160156 4.296875 45.578125 4.453125 C 43.992188 4.617188 42.382812 4.820312 40.75 5.0625 L 37.96875 5.421875 C 36.332031 5.648438 34.710938 5.84375 33.109375 6 C 31.503906 6.164062 29.890625 6.25 28.265625 6.25 C 25.609375 6.25 23.03125 5.96875 20.53125 5.40625 C 18.03125 4.851562 15.707031 4 13.5625 2.84375 C 11.425781 1.695312 9.503906 0.210938 7.796875 -1.609375 C 6.085938 -3.429688 4.675781 -5.613281 3.5625 -8.15625 C 2.9375 -9.65625 2.453125 -11.207031 2.109375 -12.8125 C 1.773438 -14.425781 1.609375 -16.066406 1.609375 -17.734375 C 1.609375 -20.265625 2.0625 -22.601562 2.96875 -24.75 C 3.882812 -26.894531 5.144531 -28.75 6.75 -30.3125 C 8.351562 -31.882812 10.238281 -33.113281 12.40625 -34 C 14.570312 -34.894531 16.921875 -35.34375 19.453125 -35.34375 C 19.648438 -35.34375 19.859375 -35.34375 20.078125 -35.34375 C 20.296875 -35.34375 20.503906 -35.320312 20.703125 -35.28125 L 21.59375 -35.21875 L 21.890625 -35.21875 L 22.546875 -35.171875 C 23.265625 -35.171875 23.929688 -35.257812 24.546875 -35.4375 C 25.160156 -35.613281 25.601562 -36.097656 25.875 -36.890625 L 27.25 -29.578125 C 26.613281 -31.035156 25.5625 -32.28125 24.09375 -33.3125 C 22.625 -34.34375 21.078125 -34.859375 19.453125 -34.859375 C 16.953125 -34.859375 14.835938 -34.375 13.109375 -33.40625 C 11.390625 -32.4375 9.984375 -31.15625 8.890625 -29.5625 C 7.804688 -27.976562 7.015625 -26.15625 6.515625 -24.09375 C 6.015625 -22.03125 5.765625 -19.910156 5.765625 -17.734375 C 5.765625 -14.398438 6.226562 -11.304688 7.15625 -8.453125 C 8.09375 -5.597656 9.472656 -3.128906 11.296875 -1.046875 C 13.128906 1.035156 15.382812 2.671875 18.0625 3.859375 C 20.738281 5.054688 23.820312 5.65625 27.3125 5.65625 C 29.019531 5.65625 30.6875 5.515625 32.3125 5.234375 C 33.9375 4.953125 35.5625 4.613281 37.1875 4.21875 L 39.984375 3.625 C 41.648438 3.226562 43.296875 2.890625 44.921875 2.609375 C 46.546875 2.335938 48.191406 2.203125 49.859375 2.203125 Z M 49.859375 2.203125 "/></g></g></g><g fill="#f0ece4" ><g transform="translate(87.282703, 125.861017)"><g><path d="M 6.1875 -2.734375 C 6.1875 -1.984375 6.40625 -1.390625 6.84375 -0.953125 C 7.28125 -0.515625 7.835938 -0.195312 8.515625 0 L 2.140625 0 C 2.859375 -0.238281 3.53125 -0.675781 4.15625 -1.3125 C 4.789062 -1.945312 5.25 -2.640625 5.53125 -3.390625 L 15.65625 -29.515625 L 25.828125 -3.390625 C 26.140625 -2.679688 26.539062 -2 27.03125 -1.34375 C 27.53125 -0.6875 28.160156 -0.238281 28.921875 0 L 20.34375 0 C 20.863281 -0.15625 21.289062 -0.5 21.625 -1.03125 C 21.96875 -1.570312 22.140625 -2.082031 22.140625 -2.5625 C 22.140625 -2.875 22 -3.425781 21.71875 -4.21875 C 21.4375 -5.019531 21.117188 -5.875 20.765625 -6.78125 C 20.410156 -7.695312 20.0625 -8.570312 19.71875 -9.40625 C 19.382812 -10.238281 19.140625 -10.851562 18.984375 -11.25 L 9.15625 -11.25 C 9 -10.851562 8.757812 -10.265625 8.4375 -9.484375 C 8.125 -8.710938 7.800781 -7.898438 7.46875 -7.046875 C 7.132812 -6.191406 6.835938 -5.367188 6.578125 -4.578125 C 6.316406 -3.785156 6.1875 -3.171875 6.1875 -2.734375 Z M 9.28125 -11.71875 L 18.75 -11.71875 L 14.046875 -23.984375 Z M 9.28125 -11.71875 "/></g></g></g><g fill="#f0ece4" ><g transform="translate(118.338145, 125.861017)"><g><path d="M 29.875 -29.15625 C 28.914062 -28.832031 28.148438 -28.394531 27.578125 -27.84375 C 27.003906 -27.289062 26.539062 -26.554688 26.1875 -25.640625 L 15.65625 0 L 5 -25.34375 C 4.675781 -26.019531 4.285156 -26.742188 3.828125 -27.515625 C 3.378906 -28.285156 2.796875 -28.832031 2.078125 -29.15625 L 10.359375 -29.15625 C 9.835938 -28.957031 9.425781 -28.597656 9.125 -28.078125 C 8.832031 -27.566406 8.6875 -27.035156 8.6875 -26.484375 C 8.6875 -26.285156 8.875 -25.671875 9.25 -24.640625 C 9.625 -23.609375 10.097656 -22.375 10.671875 -20.9375 C 11.253906 -19.507812 11.890625 -17.972656 12.578125 -16.328125 C 13.273438 -14.679688 13.953125 -13.113281 14.609375 -11.625 C 15.265625 -10.144531 15.835938 -8.828125 16.328125 -7.671875 C 16.828125 -6.523438 17.15625 -5.753906 17.3125 -5.359375 C 17.507812 -5.828125 17.851562 -6.644531 18.34375 -7.8125 C 18.84375 -8.988281 19.410156 -10.335938 20.046875 -11.859375 C 20.679688 -13.390625 21.347656 -14.988281 22.046875 -16.65625 C 22.742188 -18.320312 23.378906 -19.867188 23.953125 -21.296875 C 24.523438 -22.722656 25 -23.941406 25.375 -24.953125 C 25.75 -25.972656 25.9375 -26.582031 25.9375 -26.78125 C 25.9375 -27.375 25.695312 -27.882812 25.21875 -28.3125 C 24.75 -28.75 24.238281 -29.03125 23.6875 -29.15625 Z M 29.875 -29.15625 "/></g></g></g><g fill="#f0ece4" ><g transform="translate(150.226493, 125.861017)"><g><path d="M 13.5 -0.46875 C 15.363281 -0.46875 17.1875 -0.90625 18.96875 -1.78125 C 20.757812 -2.65625 22.113281 -3.945312 23.03125 -5.65625 L 21.65625 0 L 2.078125 0 C 2.953125 -0.28125 3.523438 -0.785156 3.796875 -1.515625 C 4.078125 -2.253906 4.21875 -3.019531 4.21875 -3.8125 L 4.21875 -25.53125 C 4.21875 -26.320312 4.078125 -27.0625 3.796875 -27.75 C 3.523438 -28.445312 2.953125 -28.914062 2.078125 -29.15625 L 21.234375 -29.15625 L 22.4375 -23.5625 C 21.519531 -25.3125 20.296875 -26.597656 18.765625 -27.421875 C 17.242188 -28.253906 15.507812 -28.671875 13.5625 -28.671875 L 7.859375 -28.671875 L 7.859375 -15.046875 L 11.546875 -15.046875 C 12.617188 -15.046875 13.609375 -15.273438 14.515625 -15.734375 C 15.429688 -16.191406 16.046875 -16.992188 16.359375 -18.140625 L 16.359375 -11.609375 C 16.046875 -12.753906 15.429688 -13.535156 14.515625 -13.953125 C 13.609375 -14.367188 12.617188 -14.578125 11.546875 -14.578125 L 7.859375 -14.578125 L 7.859375 -0.46875 Z M 13.5 -0.46875 "/></g></g></g><g fill="#f0ece4" ><g transform="translate(175.332609, 125.861017)"><g><path d="M 6.1875 -2.734375 C 6.1875 -1.984375 6.40625 -1.390625 6.84375 -0.953125 C 7.28125 -0.515625 7.835938 -0.195312 8.515625 0 L 2.140625 0 C 2.859375 -0.238281 3.53125 -0.675781 4.15625 -1.3125 C 4.789062 -1.945312 5.25 -2.640625 5.53125 -3.390625 L 15.65625 -29.515625 L 25.828125 -3.390625 C 26.140625 -2.679688 26.539062 -2 27.03125 -1.34375 C 27.53125 -0.6875 28.160156 -0.238281 28.921875 0 L 20.34375 0 C 20.863281 -0.15625 21.289062 -0.5 21.625 -1.03125 C 21.96875 -1.570312 22.140625 -2.082031 22.140625 -2.5625 C 22.140625 -2.875 22 -3.425781 21.71875 -4.21875 C 21.4375 -5.019531 21.117188 -5.875 20.765625 -6.78125 C 20.410156 -7.695312 20.0625 -8.570312 19.71875 -9.40625 C 19.382812 -10.238281 19.140625 -10.851562 18.984375 -11.25 L 9.15625 -11.25 C 9 -10.851562 8.757812 -10.265625 8.4375 -9.484375 C 8.125 -8.710938 7.800781 -7.898438 7.46875 -7.046875 C 7.132812 -6.191406 6.835938 -5.367188 6.578125 -4.578125 C 6.316406 -3.785156 6.1875 -3.171875 6.1875 -2.734375 Z M 9.28125 -11.71875 L 18.75 -11.71875 L 14.046875 -23.984375 Z M 9.28125 -11.71875 "/></g></g></g><g transform="matrix(1, 0, 0, 1, 135, 129)"><g clip-path="url(#b50d4c1832)"><g fill="#f0ece4" ><g transform="translate(1.592895, 8.481192)"><g><path d="M 2.015625 0 L 2.015625 -4.578125 L 0.25 -4.578125 L 0.25 -5.203125 L 4.421875 -5.203125 L 4.421875 -4.578125 L 2.671875 -4.578125 L 2.671875 0 Z M 2.015625 0 "/></g></g></g><g fill="#f0ece4" ><g transform="translate(7.321619, 8.481192)"><g><path d="M 4.171875 0 L 4.171875 -2.34375 L 1.40625 -2.34375 L 1.40625 0 L 0.765625 0 L 0.765625 -5.203125 L 1.40625 -5.203125 L 1.40625 -2.96875 L 4.171875 -2.96875 L 4.171875 -5.203125 L 4.828125 -5.203125 L 4.828125 0 Z M 4.171875 0 "/></g></g></g><g fill="#f0ece4" ><g transform="translate(13.949407, 8.481192)"><g><path d="M 0.765625 0 L 0.765625 -5.203125 L 3.921875 -5.203125 L 3.921875 -4.59375 L 1.40625 -4.59375 L 1.40625 -2.953125 L 3.734375 -2.953125 L 3.734375 -2.34375 L 1.40625 -2.34375 L 1.40625 -0.609375 L 4 -0.609375 L 4 0 Z M 0.765625 0 "/></g></g></g><g fill="#f0ece4" ><g transform="translate(19.477512, 8.481192)"><g/></g></g><g fill="#f0ece4" ><g transform="translate(22.367876, 8.481192)"><g><path d="M 4.171875 0 L 4.171875 -2.34375 L 1.40625 -2.34375 L 1.40625 0 L 0.765625 0 L 0.765625 -5.203125 L 1.40625 -5.203125 L 1.40625 -2.96875 L 4.171875 -2.96875 L 4.171875 -5.203125 L 4.828125 -5.203125 L 4.828125 0 Z M 4.171875 0 "/></g></g></g><g fill="#f0ece4" ><g transform="translate(28.995663, 8.481192)"><g><path d="M 0.765625 0 L 0.765625 -5.203125 L 1.40625 -5.203125 L 1.40625 0 Z M 0.765625 0 "/></g></g></g><g fill="#f0ece4" ><g transform="translate(32.212956, 8.481192)"><g><path d="M 0.765625 0 L 0.765625 -5.203125 L 2.5625 -5.203125 C 3.09375 -5.203125 3.554688 -5.09375 3.953125 -4.875 C 4.359375 -4.65625 4.671875 -4.347656 4.890625 -3.953125 C 5.117188 -3.566406 5.234375 -3.117188 5.234375 -2.609375 C 5.234375 -2.097656 5.117188 -1.644531 4.890625 -1.25 C 4.671875 -0.851562 4.359375 -0.546875 3.953125 -0.328125 C 3.554688 -0.109375 3.09375 0 2.5625 0 Z M 1.40625 -0.625 L 2.5625 -0.625 C 2.957031 -0.625 3.300781 -0.707031 3.59375 -0.875 C 3.894531 -1.039062 4.128906 -1.269531 4.296875 -1.5625 C 4.472656 -1.863281 4.5625 -2.210938 4.5625 -2.609375 C 4.5625 -3.003906 4.472656 -3.347656 4.296875 -3.640625 C 4.128906 -3.929688 3.894531 -4.160156 3.59375 -4.328125 C 3.289062 -4.492188 2.9375 -4.578125 2.53125 -4.578125 L 1.40625 -4.578125 Z M 1.40625 -0.625 "/></g></g></g><g fill="#f0ece4" ><g transform="translate(38.915043, 8.481192)"><g><path d="M 0.765625 0 L 0.765625 -5.203125 L 2.5625 -5.203125 C 3.09375 -5.203125 3.554688 -5.09375 3.953125 -4.875 C 4.359375 -4.65625 4.671875 -4.347656 4.890625 -3.953125 C 5.117188 -3.566406 5.234375 -3.117188 5.234375 -2.609375 C 5.234375 -2.097656 5.117188 -1.644531 4.890625 -1.25 C 4.671875 -0.851562 4.359375 -0.546875 3.953125 -0.328125 C 3.554688 -0.109375 3.09375 0 2.5625 0 Z M 1.40625 -0.625 L 2.5625 -0.625 C 2.957031 -0.625 3.300781 -0.707031 3.59375 -0.875 C 3.894531 -1.039062 4.128906 -1.269531 4.296875 -1.5625 C 4.472656 -1.863281 4.5625 -2.210938 4.5625 -2.609375 C 4.5625 -3.003906 4.472656 -3.347656 4.296875 -3.640625 C 4.128906 -3.929688 3.894531 -4.160156 3.59375 -4.328125 C 3.289062 -4.492188 2.9375 -4.578125 2.53125 -4.578125 L 1.40625 -4.578125 Z M 1.40625 -0.625 "/></g></g></g><g fill="#f0ece4" ><g transform="translate(45.617129, 8.481192)"><g><path d="M 0.765625 0 L 0.765625 -5.203125 L 3.921875 -5.203125 L 3.921875 -4.59375 L 1.40625 -4.59375 L 1.40625 -2.953125 L 3.734375 -2.953125 L 3.734375 -2.34375 L 1.40625 -2.34375 L 1.40625 -0.609375 L 4 -0.609375 L 4 0 Z M 0.765625 0 "/></g></g></g><g fill="#f0ece4" ><g transform="translate(51.145235, 8.481192)"><g><path d="M 0.765625 0 L 0.765625 -5.203125 L 1.375 -5.203125 L 4.25 -1.125 L 4.25 -5.203125 L 4.890625 -5.203125 L 4.890625 0 L 4.28125 0 L 1.40625 -4.078125 L 1.40625 0 Z M 0.765625 0 "/></g></g></g><g fill="#f0ece4" ><g transform="translate(57.839895, 8.481192)"><g/></g></g><g fill="#f0ece4" ><g transform="translate(60.730259, 8.481192)"><g><path d="M 0.765625 0 L 0.765625 -5.203125 L 1.40625 -5.203125 L 1.40625 -0.625 L 3.9375 -0.625 L 3.9375 0 Z M 0.765625 0 "/></g></g></g><g fill="#f0ece4" ><g transform="translate(65.946287, 8.481192)"><g><path d="M 0.765625 0 L 0.765625 -5.203125 L 1.40625 -5.203125 L 1.40625 0 Z M 0.765625 0 "/></g></g></g><g fill="#f0ece4" ><g transform="translate(69.163579, 8.481192)"><g><path d="M 2.484375 0.09375 C 2.066406 0.09375 1.707031 0.0234375 1.40625 -0.109375 C 1.101562 -0.253906 0.867188 -0.453125 0.703125 -0.703125 C 0.535156 -0.960938 0.453125 -1.257812 0.453125 -1.59375 L 1.09375 -1.59375 C 1.101562 -1.257812 1.234375 -1 1.484375 -0.8125 C 1.742188 -0.625 2.078125 -0.53125 2.484375 -0.53125 C 2.859375 -0.53125 3.148438 -0.597656 3.359375 -0.734375 C 3.578125 -0.878906 3.6875 -1.082031 3.6875 -1.34375 C 3.6875 -1.582031 3.582031 -1.773438 3.375 -1.921875 C 3.164062 -2.078125 2.828125 -2.207031 2.359375 -2.3125 C 1.710938 -2.46875 1.238281 -2.664062 0.9375 -2.90625 C 0.644531 -3.144531 0.5 -3.46875 0.5 -3.875 C 0.5 -4.3125 0.664062 -4.65625 1 -4.90625 C 1.34375 -5.164062 1.796875 -5.296875 2.359375 -5.296875 C 2.953125 -5.296875 3.414062 -5.148438 3.75 -4.859375 C 4.09375 -4.566406 4.265625 -4.171875 4.265625 -3.671875 L 3.625 -3.671875 C 3.613281 -3.984375 3.492188 -4.226562 3.265625 -4.40625 C 3.046875 -4.582031 2.742188 -4.671875 2.359375 -4.671875 C 1.992188 -4.671875 1.703125 -4.597656 1.484375 -4.453125 C 1.273438 -4.304688 1.171875 -4.113281 1.171875 -3.875 C 1.171875 -3.65625 1.269531 -3.472656 1.46875 -3.328125 C 1.664062 -3.179688 2.015625 -3.046875 2.515625 -2.921875 C 3.179688 -2.753906 3.65625 -2.546875 3.9375 -2.296875 C 4.21875 -2.054688 4.359375 -1.75 4.359375 -1.375 C 4.359375 -0.914062 4.1875 -0.554688 3.84375 -0.296875 C 3.507812 -0.0351562 3.054688 0.09375 2.484375 0.09375 Z M 2.484375 0.09375 "/></g></g></g><g fill="#f0ece4" ><g transform="translate(75.018614, 8.481192)"><g><path d="M 2.015625 0 L 2.015625 -4.578125 L 0.25 -4.578125 L 0.25 -5.203125 L 4.421875 -5.203125 L 4.421875 -4.578125 L 2.671875 -4.578125 L 2.671875 0 Z M 2.015625 0 "/></g></g></g></g></g></svg>